<mxfile host="app.diagrams.net" modified="2022-09-04T14:49:51.009Z" agent="5.0 (Windows NT 10.0; Win64; x64) AppleWebKit/537.36 (KHTML, like Gecko) Chrome/104.0.0.0 Safari/537.36" etag="X3ead-iQz2vlz_6HPj4q" version="20.2.8" type="github">
  <diagram id="BnTE62ytsvdGZQtbV1Mt" name="Page-1">
    <mxGraphModel dx="572" dy="531" grid="1" gridSize="10" guides="1" tooltips="1" connect="1" arrows="1" fold="1" page="1" pageScale="1" pageWidth="850" pageHeight="1100" math="0" shadow="0">
      <root>
        <mxCell id="0" />
        <mxCell id="1" parent="0" />
        <mxCell id="2XgzpGgX_Dnspsq_8UAF-1" value="GiaoDich" style="swimlane;fontStyle=1;align=center;verticalAlign=top;childLayout=stackLayout;horizontal=1;startSize=26;horizontalStack=0;resizeParent=1;resizeParentMax=0;resizeLast=0;collapsible=1;marginBottom=0;" parent="1" vertex="1">
          <mxGeometry x="320" y="110" width="160" height="210" as="geometry" />
        </mxCell>
        <mxCell id="2XgzpGgX_Dnspsq_8UAF-2" value="# maGiaoDich: int&#xa;# ngay: int&#xa;# thang: int&#xa;# nam: int&#xa;# donGia: float&#xa;# soLuong: int&#xa;# thanhTien: float" style="text;strokeColor=none;fillColor=none;align=left;verticalAlign=top;spacingLeft=4;spacingRight=4;overflow=hidden;rotatable=0;points=[[0,0.5],[1,0.5]];portConstraint=eastwest;" parent="2XgzpGgX_Dnspsq_8UAF-1" vertex="1">
          <mxGeometry y="26" width="160" height="114" as="geometry" />
        </mxCell>
        <mxCell id="2XgzpGgX_Dnspsq_8UAF-3" value="" style="line;strokeWidth=1;fillColor=none;align=left;verticalAlign=middle;spacingTop=-1;spacingLeft=3;spacingRight=3;rotatable=0;labelPosition=right;points=[];portConstraint=eastwest;" parent="2XgzpGgX_Dnspsq_8UAF-1" vertex="1">
          <mxGeometry y="140" width="160" height="8" as="geometry" />
        </mxCell>
        <mxCell id="2XgzpGgX_Dnspsq_8UAF-4" value="+ nhap()&#xa;+ xuat()&#xa;+ tinhTien()" style="text;strokeColor=none;fillColor=none;align=left;verticalAlign=top;spacingLeft=4;spacingRight=4;overflow=hidden;rotatable=0;points=[[0,0.5],[1,0.5]];portConstraint=eastwest;" parent="2XgzpGgX_Dnspsq_8UAF-1" vertex="1">
          <mxGeometry y="148" width="160" height="62" as="geometry" />
        </mxCell>
        <mxCell id="2XgzpGgX_Dnspsq_8UAF-5" value="GiaoDichTienTe" style="swimlane;fontStyle=1;align=center;verticalAlign=top;childLayout=stackLayout;horizontal=1;startSize=26;horizontalStack=0;resizeParent=1;resizeParentMax=0;resizeLast=0;collapsible=1;marginBottom=0;" parent="1" vertex="1">
          <mxGeometry x="490" y="390" width="160" height="112" as="geometry" />
        </mxCell>
        <mxCell id="2XgzpGgX_Dnspsq_8UAF-6" value="- tiGia: float&#xa;- loaiTienTe: int" style="text;strokeColor=none;fillColor=none;align=left;verticalAlign=top;spacingLeft=4;spacingRight=4;overflow=hidden;rotatable=0;points=[[0,0.5],[1,0.5]];portConstraint=eastwest;" parent="2XgzpGgX_Dnspsq_8UAF-5" vertex="1">
          <mxGeometry y="26" width="160" height="44" as="geometry" />
        </mxCell>
        <mxCell id="2XgzpGgX_Dnspsq_8UAF-7" value="" style="line;strokeWidth=1;fillColor=none;align=left;verticalAlign=middle;spacingTop=-1;spacingLeft=3;spacingRight=3;rotatable=0;labelPosition=right;points=[];portConstraint=eastwest;" parent="2XgzpGgX_Dnspsq_8UAF-5" vertex="1">
          <mxGeometry y="70" width="160" height="8" as="geometry" />
        </mxCell>
        <mxCell id="2XgzpGgX_Dnspsq_8UAF-8" value="@Override tinhTien()" style="text;strokeColor=none;fillColor=none;align=left;verticalAlign=top;spacingLeft=4;spacingRight=4;overflow=hidden;rotatable=0;points=[[0,0.5],[1,0.5]];portConstraint=eastwest;" parent="2XgzpGgX_Dnspsq_8UAF-5" vertex="1">
          <mxGeometry y="78" width="160" height="34" as="geometry" />
        </mxCell>
        <mxCell id="2XgzpGgX_Dnspsq_8UAF-9" value="GiaoDichVang" style="swimlane;fontStyle=1;align=center;verticalAlign=top;childLayout=stackLayout;horizontal=1;startSize=26;horizontalStack=0;resizeParent=1;resizeParentMax=0;resizeLast=0;collapsible=1;marginBottom=0;" parent="1" vertex="1">
          <mxGeometry x="100" y="390" width="160" height="86" as="geometry" />
        </mxCell>
        <mxCell id="2XgzpGgX_Dnspsq_8UAF-10" value="# loaiVang: String" style="text;strokeColor=none;fillColor=none;align=left;verticalAlign=top;spacingLeft=4;spacingRight=4;overflow=hidden;rotatable=0;points=[[0,0.5],[1,0.5]];portConstraint=eastwest;" parent="2XgzpGgX_Dnspsq_8UAF-9" vertex="1">
          <mxGeometry y="26" width="160" height="26" as="geometry" />
        </mxCell>
        <mxCell id="2XgzpGgX_Dnspsq_8UAF-11" value="" style="line;strokeWidth=1;fillColor=none;align=left;verticalAlign=middle;spacingTop=-1;spacingLeft=3;spacingRight=3;rotatable=0;labelPosition=right;points=[];portConstraint=eastwest;" parent="2XgzpGgX_Dnspsq_8UAF-9" vertex="1">
          <mxGeometry y="52" width="160" height="8" as="geometry" />
        </mxCell>
        <mxCell id="2XgzpGgX_Dnspsq_8UAF-12" value="@Override tinhTien()" style="text;strokeColor=none;fillColor=none;align=left;verticalAlign=top;spacingLeft=4;spacingRight=4;overflow=hidden;rotatable=0;points=[[0,0.5],[1,0.5]];portConstraint=eastwest;" parent="2XgzpGgX_Dnspsq_8UAF-9" vertex="1">
          <mxGeometry y="60" width="160" height="26" as="geometry" />
        </mxCell>
        <mxCell id="2XgzpGgX_Dnspsq_8UAF-13" value="Extends" style="endArrow=block;endSize=16;endFill=0;html=1;rounded=0;exitX=0.5;exitY=0;exitDx=0;exitDy=0;entryX=0;entryY=1.048;entryDx=0;entryDy=0;entryPerimeter=0;" parent="1" source="2XgzpGgX_Dnspsq_8UAF-9" target="2XgzpGgX_Dnspsq_8UAF-4" edge="1">
          <mxGeometry width="160" relative="1" as="geometry">
            <mxPoint x="290" y="290" as="sourcePoint" />
            <mxPoint x="450" y="290" as="targetPoint" />
          </mxGeometry>
        </mxCell>
        <mxCell id="2XgzpGgX_Dnspsq_8UAF-14" value="Extends" style="endArrow=block;endSize=16;endFill=0;html=1;rounded=0;entryX=1.011;entryY=1.003;entryDx=0;entryDy=0;entryPerimeter=0;exitX=0.5;exitY=0;exitDx=0;exitDy=0;" parent="1" source="2XgzpGgX_Dnspsq_8UAF-5" target="2XgzpGgX_Dnspsq_8UAF-4" edge="1">
          <mxGeometry width="160" relative="1" as="geometry">
            <mxPoint x="490" y="360" as="sourcePoint" />
            <mxPoint x="650" y="360" as="targetPoint" />
          </mxGeometry>
        </mxCell>
        <mxCell id="2XgzpGgX_Dnspsq_8UAF-20" value="DanhSachGiaoDich" style="swimlane;fontStyle=1;align=center;verticalAlign=top;childLayout=stackLayout;horizontal=1;startSize=26;horizontalStack=0;resizeParent=1;resizeParentMax=0;resizeLast=0;collapsible=1;marginBottom=0;" parent="1" vertex="1">
          <mxGeometry x="590" y="120" width="220" height="200" as="geometry" />
        </mxCell>
        <mxCell id="2XgzpGgX_Dnspsq_8UAF-21" value="- listGiaoDich: ArrayList&lt;GiaoDich&gt;()&#xa;- tongSLGDVang: int&#xa;- tong SLGDTienTe: int" style="text;strokeColor=none;fillColor=none;align=left;verticalAlign=top;spacingLeft=4;spacingRight=4;overflow=hidden;rotatable=0;points=[[0,0.5],[1,0.5]];portConstraint=eastwest;" parent="2XgzpGgX_Dnspsq_8UAF-20" vertex="1">
          <mxGeometry y="26" width="220" height="64" as="geometry" />
        </mxCell>
        <mxCell id="2XgzpGgX_Dnspsq_8UAF-22" value="" style="line;strokeWidth=1;fillColor=none;align=left;verticalAlign=middle;spacingTop=-1;spacingLeft=3;spacingRight=3;rotatable=0;labelPosition=right;points=[];portConstraint=eastwest;" parent="2XgzpGgX_Dnspsq_8UAF-20" vertex="1">
          <mxGeometry y="90" width="220" height="8" as="geometry" />
        </mxCell>
        <mxCell id="2XgzpGgX_Dnspsq_8UAF-23" value="+ nhap()&#xa;+ xuat()&#xa;+ tongSLGDVang()&#xa;+ tinhTongSLGDTienTe()&#xa;+ tinhTBThanhTienTT()&#xa;+ xuatGDTheoTieuChi()" style="text;strokeColor=none;fillColor=none;align=left;verticalAlign=top;spacingLeft=4;spacingRight=4;overflow=hidden;rotatable=0;points=[[0,0.5],[1,0.5]];portConstraint=eastwest;" parent="2XgzpGgX_Dnspsq_8UAF-20" vertex="1">
          <mxGeometry y="98" width="220" height="102" as="geometry" />
        </mxCell>
        <mxCell id="2XgzpGgX_Dnspsq_8UAF-28" value="XuLy" style="swimlane;fontStyle=1;align=center;verticalAlign=top;childLayout=stackLayout;horizontal=1;startSize=26;horizontalStack=0;resizeParent=1;resizeParentMax=0;resizeLast=0;collapsible=1;marginBottom=0;" parent="1" vertex="1">
          <mxGeometry x="670" y="390" width="160" height="86" as="geometry" />
        </mxCell>
        <mxCell id="2XgzpGgX_Dnspsq_8UAF-29" value="+ field: type" style="text;strokeColor=none;fillColor=none;align=left;verticalAlign=top;spacingLeft=4;spacingRight=4;overflow=hidden;rotatable=0;points=[[0,0.5],[1,0.5]];portConstraint=eastwest;" parent="2XgzpGgX_Dnspsq_8UAF-28" vertex="1">
          <mxGeometry y="26" width="160" height="26" as="geometry" />
        </mxCell>
        <mxCell id="2XgzpGgX_Dnspsq_8UAF-30" value="" style="line;strokeWidth=1;fillColor=none;align=left;verticalAlign=middle;spacingTop=-1;spacingLeft=3;spacingRight=3;rotatable=0;labelPosition=right;points=[];portConstraint=eastwest;" parent="2XgzpGgX_Dnspsq_8UAF-28" vertex="1">
          <mxGeometry y="52" width="160" height="8" as="geometry" />
        </mxCell>
        <mxCell id="2XgzpGgX_Dnspsq_8UAF-31" value="+ method(type): type" style="text;strokeColor=none;fillColor=none;align=left;verticalAlign=top;spacingLeft=4;spacingRight=4;overflow=hidden;rotatable=0;points=[[0,0.5],[1,0.5]];portConstraint=eastwest;" parent="2XgzpGgX_Dnspsq_8UAF-28" vertex="1">
          <mxGeometry y="60" width="160" height="26" as="geometry" />
        </mxCell>
      </root>
    </mxGraphModel>
  </diagram>
</mxfile>
